<svg width="39" height="39" viewBox="0 0 39 39" fill="none" xmlns="http://www.w3.org/2000/svg">
<path d="M3.25342 19.5034C3.25531 27.4974 9.06832 34.3039 16.9635 35.5568V24.1996H12.8409V19.5034H16.9684V15.9284C16.7839 14.2344 17.3625 12.5461 18.5473 11.3214C19.7322 10.0967 21.4004 9.46253 23.0995 9.59088C24.3192 9.61058 25.5357 9.7192 26.7395 9.91588V13.9118H24.6855C23.9784 13.8191 23.2675 14.0527 22.753 14.5466C22.2386 15.0405 21.9763 15.7413 22.04 16.4516V19.5034H26.5429L25.823 24.2013H22.04V35.5568C30.5786 34.2074 36.5661 26.4093 35.6649 17.8119C34.7637 9.21448 27.2893 2.82752 18.6565 3.27805C10.0238 3.72858 3.25479 10.8589 3.25342 19.5034Z" fill="#2E3A59"/>
</svg>
