<svg width="39" height="39" viewBox="0 0 39 39" fill="none" xmlns="http://www.w3.org/2000/svg">
<path d="M31.4629 34.1136H7.53645C6.07369 34.1118 4.88859 32.9259 4.8877 31.4632V7.53669C4.88949 6.07457 6.07432 4.88973 7.53645 4.88794H31.4613C32.924 4.88973 34.1097 6.07404 34.1133 7.53669V31.4632C34.1115 32.9262 32.926 34.1118 31.4629 34.1136ZM10.8433 15.7137L10.2128 18.0374H12.2896L10.9473 23.5072C10.8487 23.9398 10.7942 24.3814 10.7848 24.8251C10.7093 25.5391 10.9648 26.2484 11.4783 26.7502C11.9919 27.252 12.7069 27.4911 13.4189 27.3991C14.9298 27.3335 16.287 26.4557 16.9663 25.1046L16.4349 27.2171H19.3778L21.0564 20.4879C21.4789 18.7654 22.3109 17.8879 23.5248 17.8879C23.9561 17.8558 24.3798 18.0146 24.6836 18.3225C24.9874 18.6303 25.1406 19.0561 25.1027 19.4869C25.107 19.807 25.0604 20.1257 24.9646 20.4311L24.1066 23.5283C23.9829 23.9572 23.9205 24.4014 23.9213 24.8478C23.8748 25.5608 24.1478 26.2575 24.6661 26.7492C25.1845 27.2409 25.8947 27.4766 26.6042 27.3926C28.2779 27.3926 29.4447 26.2551 30.0768 24.0109L28.9279 23.5673C28.4794 24.8494 28.0017 25.4734 27.4654 25.4734C27.0738 25.4734 26.8674 25.2021 26.8674 24.6869C26.8785 24.4168 26.9193 24.1486 26.9893 23.8874L27.8343 20.8682C28.0259 20.247 28.1245 19.6008 28.1268 18.9507C28.2235 18.0868 27.9515 17.2223 27.3778 16.5693C26.804 15.9164 25.9815 15.5355 25.1124 15.5203C23.4092 15.7529 21.9385 16.8299 21.2027 18.3836L21.7877 15.7559H17.2572L16.6218 18.0309H18.7246L17.4246 23.2114C16.9706 24.4841 15.8054 25.3667 14.4573 25.4588C14.4072 25.4596 14.3572 25.4557 14.3078 25.4474C13.9129 25.3548 13.6838 25.2037 13.6838 24.7129C13.693 24.3073 13.7531 23.9044 13.8626 23.5137L15.8386 15.7137H10.8433ZM14.6539 10.5754C14.0211 10.5754 13.4364 10.913 13.12 11.4611C12.8036 12.0091 12.8036 12.6843 13.12 13.2323C13.4364 13.7803 14.0211 14.1179 14.6539 14.1179V14.0773C15.1277 14.0812 15.5838 13.8978 15.9231 13.5671C16.2557 13.2386 16.4415 12.7897 16.4382 12.3223C16.4257 11.3481 15.6282 10.5673 14.6539 10.5754Z" fill="#2E3A59"/>
</svg>
