<svg width="23" height="18" viewBox="0 0 23 18" fill="none" xmlns="http://www.w3.org/2000/svg">
<path d="M2.82812 3.70312V13.7344C2.875 14.0625 2.78125 14.4375 2.54688 14.7188L0.15625 17.5781V17.9531H6.90625V17.5781L4.51562 14.7188C4.23438 14.4375 4.14062 14.0625 4.1875 13.7344V5.0625L10.0938 18H10.7969L15.9062 5.0625V15.3281C15.9062 15.6094 15.9062 15.6562 15.7188 15.8438L13.8906 17.625V18H22.7969V17.625L21.0156 15.8906C20.875 15.7969 20.7812 15.5625 20.8281 15.375V2.625C20.7812 2.4375 20.875 2.25 21.0156 2.15625L22.7969 0.421875V0H16.5625L12.0625 11.1562L7 0H0.4375V0.421875L2.54688 2.95312C2.73438 3.14062 2.875 3.42188 2.82812 3.70312Z" fill="#753177"/>
</svg>
