<?xml version="1.0" encoding="UTF-8"?>
<svg width="18px" height="18px" viewBox="0 0 18 18" version="1.1" xmlns="http://www.w3.org/2000/svg" xmlns:xlink="http://www.w3.org/1999/xlink">
    <!-- Generator: Sketch 63 (92445) - https://sketch.com -->
    <title>renzheng</title>
    <desc>Created with Sketch.</desc>
    <g id="页面-1" stroke="none" stroke-width="1" fill="none" fill-rule="evenodd">
        <g id="拍卖2" transform="translate(-1114.000000, -213.000000)" fill="#39C876" fill-rule="nonzero">
            <g id="renzheng" transform="translate(1114.000000, 213.000000)">
                <path d="M17.3506169,7.83715947 L15.4733675,5.95989265 L15.4733675,3.87344035 C15.4733675,3.01929237 14.7808423,2.32676719 13.9267117,2.32676719 L11.8398772,2.32676719 L9.95140588,0.437896324 C9.36753833,-0.145971232 8.42099228,-0.145971232 7.83712472,0.437896324 L5.94825386,2.32676719 L3.87342298,2.32676719 C3.019275,2.32676719 2.32676719,3.01929237 2.32676719,3.87344035 L2.32676719,5.9482886 L0.437896324,7.83715947 C-0.145971232,8.42102702 -0.145971232,9.36759044 0.437896324,9.951458 L2.32674982,11.8399467 L2.32674982,13.9267812 C2.32674982,14.7809291 3.019275,15.4734543 3.87340561,15.4734543 L5.96024007,15.4734543 L7.83710735,17.350339 C8.42097491,17.9342065 9.36752096,17.9342065 9.95138851,17.350339 L11.8282732,15.4734543 L13.9267117,15.4734543 C14.7808597,15.4734543 15.4733675,14.7809291 15.4733675,13.9267812 L15.4733675,11.8283426 L17.3506169,9.951458 C17.9341023,9.36759044 17.9341023,8.42102702 17.3506169,7.83715947 Z M7.48332298,12.7667763 L3.87342298,9.12746664 L4.82888051,8.68626976 L7.37699311,10.6714299 L13.1835491,5.03342785 L13.926729,5.36402151 L7.48332298,12.7667763 Z" id="形状"></path>
            </g>
        </g>
    </g>
</svg>