<svg width="39" height="39" viewBox="0 0 39 39" fill="none" xmlns="http://www.w3.org/2000/svg">
<path d="M32.4917 10.8681C33.9484 9.99725 35.0383 8.62599 35.558 7.01035C34.1892 7.82253 32.6916 8.39465 31.1299 8.70198C28.9647 6.41159 25.5342 5.85421 22.7553 7.34129C19.9764 8.82838 18.537 11.9918 19.2414 15.0639C13.6345 14.7824 8.41073 12.1338 4.86991 7.77735C3.02202 10.9647 3.96633 15.0391 7.02791 17.0886C5.92081 17.053 4.83826 16.7533 3.87053 16.2144C3.87053 16.2436 3.87053 16.2729 3.87053 16.3021C3.87117 19.6222 6.21114 22.4821 9.46541 23.1401C8.43851 23.4195 7.36137 23.4606 6.31616 23.2604C7.23136 26.0997 9.84818 28.0448 12.8308 28.1029C10.3605 30.0417 7.3098 31.0931 4.16953 31.088C3.61292 31.0888 3.05675 31.0568 2.50391 30.9921C5.69279 33.0413 9.40426 34.1289 13.1948 34.1251C18.4683 34.1613 23.5363 32.0823 27.2652 28.3531C30.9941 24.6239 33.0727 19.5558 33.036 14.2822C33.036 13.98 33.029 13.6794 33.0149 13.3804C34.3806 12.3933 35.5594 11.1706 36.4957 9.7696C35.2233 10.3336 33.8737 10.7039 32.4917 10.8681Z" fill="#2E3A59"/>
</svg>
