<svg width="25" height="20" viewBox="0 0 25 20" fill="none" xmlns="http://www.w3.org/2000/svg">
<path d="M22.0156 5.125C22.9531 4.42188 23.7969 3.57812 24.4531 2.59375C23.6094 2.96875 22.625 3.25 21.6406 3.34375C22.6719 2.73438 23.4219 1.79688 23.7969 0.625C22.8594 1.1875 21.7812 1.60938 20.7031 1.84375C19.7656 0.859375 18.5 0.296875 17.0938 0.296875C14.375 0.296875 12.1719 2.5 12.1719 5.21875C12.1719 5.59375 12.2188 5.96875 12.3125 6.34375C8.23438 6.10938 4.57812 4.14062 2.14062 1.1875C1.71875 1.89062 1.48438 2.73438 1.48438 3.67188C1.48438 5.35938 2.32812 6.85938 3.6875 7.75C2.89062 7.70312 2.09375 7.51562 1.4375 7.14062V7.1875C1.4375 9.57812 3.125 11.5469 5.375 12.0156C5 12.1094 4.53125 12.2031 4.10938 12.2031C3.78125 12.2031 3.5 12.1562 3.17188 12.1094C3.78125 14.0781 5.60938 15.4844 7.76562 15.5312C6.07812 16.8438 3.96875 17.6406 1.67188 17.6406C1.25 17.6406 0.875 17.5938 0.5 17.5469C2.65625 18.9531 5.23438 19.75 8.04688 19.75C17.0938 19.75 22.0156 12.2969 22.0156 5.78125C22.0156 5.54688 22.0156 5.35938 22.0156 5.125Z" fill="#753177"/>
</svg>
